# AST/ASF file generated using VICON BodyLanguage
# -----------------------------------------------
:version 1.10
:name VICON
:units
  mass 1.0
  length 0.45
  angle deg
:documentation
   .ast/.asf automatically generated from VICON data using
   VICON BodyBuilder and BodyLanguage model FoxedUp or BRILLIANT.MOD
:root
   order TX TY TZ RX RY RZ
   axis XYZ
   position 0 0 0  
   orientation 0 0 0 
:bonedata
  begin
     id 1 
     name lhipjoint
     direction 0.566809 -0.746272 0.349008 
     length 2.40479 
     axis 0 0 0  XYZ
  end
  begin
     id 2 
     name lfemur
     direction 0.34202 -0.939693 0  
     length 7.1578  
     axis 0 0 20  XYZ
    dof rx ry rz
    limits (-160.0 20.0)
           (-70.0 70.0)
           (-60.0 70.0)
  end
  begin
     id 3 
     name ltibia
     direction 0.34202 -0.939693 0   
     length 7.49137   
     axis 0 0 20   XYZ
    dof rx
    limits (-10.0 170.0)
  end
  begin
     id 4 
     name lfoot
     direction 0.0665746 -0.182912 0.980873   
     length 2.36784   
     axis -90 7.62852e-016 20   XYZ
    dof rx rz
    limits (-45.0 90.0)
           (-70.0 20.0)
  end
  begin
     id 5 
     name ltoes
     direction 1.53601e-011 -4.22058e-011 1   
     length 1.18966   
     axis -90 7.62852e-016 20   XYZ
    dof rx
    limits (-90.0 20.0)
  end
  begin
     id 6 
     name rhipjoint
     direction -0.550236 -0.756381 0.353735   
     length 2.37265  
     axis 0 0 0  XYZ 
  end
  begin
     id 7 
     name rfemur
     direction -0.34202 -0.939693 0   
     length 7.43386   
     axis 0 0 -20   XYZ
    dof rx ry rz
    limits (-160.0 20.0)
           (-70.0 70.0)
           (-70.0 60.0)
  end
  begin
     id 8 
     name rtibia
     direction -0.34202 -0.939693 0   
     length 7.50908   
     axis 0 0 -20   XYZ
    dof rx
    limits (-10.0 170.0)
 end
 begin
     id 9 
     name rfoot
     direction -0.0683029 -0.187661 0.979856   
     length 2.41173  
     axis -90 -7.62852e-016 -20   XYZ
    dof rx rz
    limits (-45.0 90.0)
           (-20.0 70.0)
  end
  begin
     id 10 
     name rtoes
     direction -1.53528e-011 -4.21968e-011 1   
     length 1.21082   
     axis -90 -7.62852e-016 -20   XYZ
    dof rx
    limits (-90.0 20.0)
  end
  begin
     id 11 
     name lowerback
     direction 0.013823 0.995423 -0.0945635   
     length 2.04495   
     axis 0 0 0   XYZ
    dof rx ry rz
    limits (-20.0 45.0)
           (-30.0 30.0)
           (-30.0 30.0)
  end
  begin
     id 12 
     name upperback
     direction 0.0276657 0.9994 -0.020853   
     length 2.05008   
     axis 0 0 0   XYZ
    dof rx ry rz
    limits (-20.0 45.0)
           (-30.0 30.0)
           (-30.0 30.0)
  end
  begin
     id 13 
     name thorax
     direction 0.019782 0.999531 0.0233827   
     length 2.06488   
     axis 0 0 0   XYZ
    dof rx ry rz
    limits (-20.0 45.0)
           (-30.0 30.0)
           (-30.0 30.0)
  end
  begin
     id 14 
     name lowerneck
     direction -0.0308541 0.994709 0.0979874   
     length 1.75553   
     axis 0 0 0   XYZ
    dof rx ry rz
    limits (-20.0 45.0)
           (-30.0 30.0)
           (-30.0 30.0)
  end
  begin
     id 15 
     name upperneck
     direction 0.0588398 0.995804 -0.0700903   
     length 1.76878   
     axis 0 0 0   XYZ
    dof rx ry rz
    limits (-20.0 45.0)
           (-30.0 30.0)
           (-30.0 30.0)
  end
  begin
     id 16
     name head
     direction 0.0209966 0.999159 -0.0352225  
     length 1.77193  
     axis 0 0 0   XYZ
    dof rx ry rz
    limits (-20.0 45.0)
           (-30.0 30.0)
           (-30.0 30.0)
  end
  begin
     id 17 
     name lclavicle
     direction 0.938182 0.335073 -0.0868338  
     length 3.58396  
     axis 0 0 0   XYZ
    dof ry rz
    limits (-20.0 10.0)
           (0.0 20.0)
  end
  begin
     id 18 
     name lhumerus
     direction 1 -4.48971e-011 -1.26313e-017   
     length 4.983   
     axis 180 -30 -90   XYZ
    dof rx ry rz
    limits (-60.0 90.0)
           (-90.0 90.0)
           (-90.0 90.0)
  end
  begin
     id 19
     name lradius
     direction 1 -4.48948e-011 -5.89033e-027   
     length 3.48356   
     axis 180 -30 -90   XYZ
    dof rx
    limits (-10.0 170.0)
  end
  begin
     id 20
     name lwrist
     direction 1 -4.48977e-011 -1.48983e-026   
     length 1.74178   
     axis 9.0955e-015 90 90   XYZ
    dof ry
    limits (-180.0 0.0)
 end
  begin
     id 21 
     name lhand
     direction 1 -4.49046e-011 -2.98066e-026   
     length 0.715259   
     axis 1.90115e-014 90 90   XYZ
    dof rx rz
    limits (-90.0 90.0)
           (-45.0 45.0)
  end
  begin
     id 22 
     name lfingers
     direction 1 -4.48907e-011 -5.95731e-026   
     length 0.576661   
     axis 3.80223e-014 90 90   XYZ
    dof rx
    limits (0.0 90.0)
  end
  begin
     id 23
     name lthumb
     direction 0.707107 -6.34963e-011 0.707107   
     length 0.827973   
     axis -90 45 -3.84942e-014   XYZ
    dof rx rz
    limits (-45.0 45.0)
           (-45.0 45.0)
  end
  begin
     id 24 
     name rclavicle
     direction -0.909637 0.398485 -0.11735   
     length 3.44819  
     axis 0 0 0   XYZ 
    dof ry rz
    limits (-10.0 20.0)
           (-20.0 0.0)
  end
  begin
     id 25 
     name rhumerus
     direction -1 -4.48978e-011 -1.09333e-027  
     length 5.2419   
     axis 180 30 90   XYZ
    dof rx ry rz
    limits (-90.0 60.0)
           (-90.0 90.0)
           (-90.0 90.0)
  end
  begin
     id 26 
     name rradius
     direction -1 -4.48953e-011 -7.61841e-027   
     length 3.44417   
     axis 180 30 90   XYZ
    dof rx
    limits (-10.0 170.0)
  end
  begin
     id 27 
     name rwrist
     direction -1 -4.48977e-011 -1.48983e-026   
     length 1.72209   
     axis 9.0955e-015 -90 -90   XYZ
    dof ry
    limits (-180.0 0.0)
  end
  begin
     id 28
     name rhand
     direction -1 -4.49027e-011 -2.98038e-026   
     length 0.622529   
     axis 1.90115e-014 -90 -90   XYZ
    dof rx rz
    limits (-90.0 90.0)
           (-45.0 45.0)
  end
  begin
     id 29
     name rfingers
     direction -1 -4.48838e-011 -5.95531e-026   
     length 0.501899   
     axis 3.80223e-014 -90 -90   XYZ
    dof rx
    limits (0.0 90.0)
  end
  begin
     id 30
     name rthumb
     direction -0.707107 -6.34937e-011 0.707107   
     length 0.720629   
     axis -90 -45 3.84942e-014   XYZ
    dof rx rz
    limits (-45.0 45.0)
           (-45.0 45.0)
  end
:hierarchy
  begin
    root lhipjoint rhipjoint lowerback
    lhipjoint lfemur
    lfemur ltibia
    ltibia lfoot
    lfoot ltoes
    rhipjoint rfemur
    rfemur rtibia
    rtibia rfoot
    rfoot rtoes
    lowerback upperback
    upperback thorax
    thorax lowerneck lclavicle rclavicle
    lowerneck upperneck
    upperneck head
    lclavicle lhumerus
    lhumerus lradius
    lradius lwrist
    lwrist lhand lthumb
    lhand lfingers
    rclavicle rhumerus
    rhumerus rradius
    rradius rwrist
    rwrist rhand rthumb
    rhand rfingers
  end

#!OML:ASF F:\VICON\USERDATA\Patient Classification 1\PLAYGROUND\JustinFriday\JustinFriday.ASF
:FULLY-SPECIFIED
:DEGREES
272
root -20.9785 17.7833 6.90148 174.492 -36.8761 -174.743
lowerback 8.77839 2.576 2.856
upperback 3.73981 3.41617 3.55242
thorax -1.08403 1.57624 1.74333
lowerneck -1.96568 -9.73125 -9.04635
upperneck 21.4803 -15.3074 6.02222
head 8.12616 -7.92763 2.13224
rclavicle 9.10434e-014 2.14687e-014
rhumerus -30.1507 -18.6832 -72.8348
rradius 25.7547
rwrist -5.80402
rhand -16.829 -20.3168
rfingers 7.12502
rthumb 9.40029 -50.0872
lclavicle 9.10434e-014 2.14687e-014
lhumerus -36.0275 8.49228 80.0746
lradius 22.4774
lwrist -8.1271
lhand -4.02001 -5.90836
lfingers 7.12502
lthumb 21.7347 22.8914
rfemur -6.54929 -5.6669 33.4344
rtibia 21.2857
rfoot -7.94571 -1.12461
rtoes 35.5058
lfemur -13.8221 5.85117 -7.90673
ltibia 67.9409
lfoot 1.51758 -7.61123
ltoes 8.16764
273
root -21.0516 17.7854 6.80756 174.32 -35.9698 -174.254
lowerback 8.49747 2.77274 3.12764
upperback 3.85129 3.66386 3.75288
thorax -0.811011 1.69576 1.79253
lowerneck -2.33547 -9.82189 -11.0337
upperneck 22.1571 -15.8146 7.89535
head 8.79173 -8.16568 2.9373
rclavicle -6.97734e-014 1.35174e-014
rhumerus -29.4361 -17.4244 -73.3506
rradius 26.0705
rwrist -6.34446
rhand -16.3149 -20.9753
rfingers 7.12502
rthumb 9.89639 -50.7227
lclavicle -6.97734e-014 1.35174e-014
lhumerus -36.1388 9.60704 79.7778
lradius 22.519
lwrist -8.12461
lhand -4.07955 -6.74718
lfingers 7.12502
lthumb 21.6776 22.0592
rfemur -6.04033 -5.26077 33.9123
rtibia 21.0762
rfoot -8.09122 -0.562824
rtoes 36.0216
lfemur -14.8321 6.19522 -7.25129
ltibia 68.1727
lfoot 1.12888 -6.4033
ltoes 14.7724
274
root -21.1264 17.7827 6.71788 174.232 -35.1664 -173.949
lowerback 8.29402 2.74224 3.17225
upperback 4.13556 3.56438 4.12727
thorax -0.422941 1.62987 2.18144
lowerneck -3.26475 -9.89527 -13.1208
upperneck 22.8377 -16.041 9.18715
head 9.52126 -8.29096 3.58504
rclavicle -2.8128e-014 -8.26944e-014
rhumerus -28.3611 -15.9056 -73.7092
rradius 26.8457
rwrist -6.5881
rhand -16.3212 -21.5615
rfingers 7.12502
rthumb 9.89025 -51.3092
lclavicle -2.8128e-014 -8.26944e-014
lhumerus -36.1918 11.9332 79.4175
lradius 22.5474
lwrist -8.54714
lhand -5.68249 -6.26217
lfingers 7.12502
lthumb 20.1376 22.7141
rfemur -5.52288 -4.93894 34.1667
rtibia 20.9004
rfoot -8.53471 0.190929
rtoes 36.8053
lfemur -15.8362 6.43201 -6.9036
ltibia 68.3037
lfoot -0.221222 -5.40013
ltoes 13.8714
275
root -21.2007 17.7695 6.64385 174.195 -34.435 -173.69
lowerback 8.24841 2.63762 3.30258
upperback 4.56849 3.34466 4.60201
thorax 0.0371704 1.49232 2.63398
lowerneck -5.29781 -9.87668 -14.4992
upperneck 23.6436 -15.6281 9.28143
head 10.2727 -8.09902 3.7602
rclavicle -2.24627e-014 4.77083e-015
rhumerus -26.7627 -14.0883 -73.9805
rradius 27.5969
rwrist -7.17676
rhand -16.978 -21.5448
rfingers 7.12502
rthumb 9.25654 -51.3216
lclavicle -2.24627e-014 4.77083e-015
lhumerus -35.9837 14.0677 79.7404
lradius 22.8703
lwrist -7.87657
lhand -7.71849 -4.9788
lfingers 7.12502
lthumb 18.1797 24.1916
rfemur -5.13967 -4.86488 34.307
rtibia 20.7971
rfoot -8.60976 0.990022
rtoes 37.2775
lfemur -16.9579 6.14638 -6.79813
ltibia 68.2264
lfoot -1.80515 -4.54006
ltoes 12.3154
276
root -21.2552 17.7586 6.53146 173.706 -34.6697 -173.462
lowerback 8.69379 3.03594 3.7288
upperback 3.88524 4.05081 3.83733
thorax -0.848662 1.88462 1.50351
lowerneck -2.97839 -10.0473 -12.0177
upperneck 22.988 -16.4843 9.15022
head 9.47211 -8.44401 3.36141
rclavicle 5.06901e-014 -8.74653e-015
rhumerus -28.9264 -15.6702 -74.4674
rradius 28.9437
rwrist -7.57496
rhand -16.1832 -21.9156
rfingers 7.12502
rthumb 10.0234 -51.6569
lclavicle 5.06901e-014 -8.74653e-015
lhumerus -37.1545 9.33679 79.7896
lradius 23.7185
lwrist -4.52121
lhand -8.65188 -4.53237
lfingers 7.12502
lthumb 17.2815 24.7193
rfemur -4.26134 -4.80274 34.5311
rtibia 20.8128
rfoot -8.98333 0.709029
rtoes 37.0738
lfemur -17.5948 5.11884 -6.44152
ltibia 67.9852
lfoot -2.96318 -4.46098
ltoes 13.7413
277
root -21.3228 17.7562 6.43297 173.655 -34.3189 -173.562
lowerback 9.21754 2.91016 3.83321
upperback 3.59861 3.95888 3.52059
thorax -1.40489 1.8431 1.09128
lowerneck -2.0802 -9.81201 -6.26034
upperneck 21.1558 -15.1286 3.92839
head 7.63266 -7.80424 1.08458
rclavicle 6.07287e-014 1.27222e-014
rhumerus -29.5419 -15.0696 -75.3571
rradius 30.1979
rwrist -7.9035
rhand -15.0319 -22.5643
rfingers 7.12502
rthumb 11.134 -52.2489
lclavicle 6.07287e-014 1.27222e-014
lhumerus -38.1153 8.0314 79.6862
lradius 24.395
lwrist -2.07114
lhand -9.75551 -4.86696
lfingers 7.12502
lthumb 16.2191 24.4746
rfemur -3.68049 -4.79987 34.417
rtibia 20.922
rfoot -9.02776 1.08479
rtoes 36.0444
lfemur -18.3437 4.80898 -6.48039
ltibia 67.5905
lfoot -3.98832 -4.14971
ltoes 14.1872
278
root -21.4053 17.7505 6.34414 173.843 -33.5919 -173.747
lowerback 10.0794 2.87779 4.52737
upperback 2.94868 4.10358 2.81781
thorax -2.45127 1.91798 -0.0987425
lowerneck -2.12458 -9.58158 -5.89141
upperneck 22.1935 -15.1534 4.31801
head 7.98963 -7.79302 1.1134
rclavicle 2.49972e-014 3.02153e-014
rhumerus -30.2075 -14.3849 -76.3514
rradius 30.9949
rwrist -8.74811
rhand -14.8836 -22.5984
rfingers 7.12502
rthumb 11.277 -52.2752
lclavicle 2.49972e-014 3.02153e-014
lhumerus -39.27 7.35126 78.6601
lradius 24.75
lwrist -0.572829
lhand -11.6096 -4.83705
lfingers 7.12502
lthumb 14.4331 24.6411
rfemur -3.21361 -4.8492 34.1751
rtibia 20.9367
rfoot -9.09387 1.89461
rtoes 33.851
lfemur -19.1817 4.79817 -6.70963
ltibia 67.0924
lfoot -5.26987 -3.6044
ltoes 11.9192
